<svg version="1.1" xmlns="http://www.w3.org/2000/svg" viewBox="-580.7687345364394 -1474.0036354890947 3275.0740497902766 2451.367461915178"><desc>Created with Snap</desc><defs></defs><g><g transform="matrix(6.7366,0,0,6.7366,-290.5567,-1595.6447)">
<g id="gSkvhj8gxx1yu">
	<g>
		<g>
			<path fill="#0560af" d="M389.05179,320.52487c0.3501,0.65393,1.14493,0.28421,0.98788-1.52158l-1.34738-1.28305
				L389.05179,320.52487z" style=""></path>
			<path fill="#0560af" d="M391.54758,308.36816c-0.65295-2.12482-1.80109-4.57565-3.03842-3.19919
				c1.29523,2.10498,0.75433,2.61383,2.29578,4.87979c0.15729,1.80878-0.43231,3.15546-0.92798,2.85034
				c0.34561,0.63904-0.29642,2.80859,0.55032,3.78156c1.04254-2.35242,1.08429-5.33295,0.22388-8.44568
				C390.94705,307.56714,391.29889,308.21512,391.54758,308.36816z" style=""></path>
			<path fill="#0560af" d="M393.64832,131.71754l-0.16,1.13794C393.57678,132.54541,393.6257,132.15483,393.64832,131.71754z" style=""></path>
			<path fill="#0560af" d="M333.67883,77.72105c0.8331-0.0328,1.18146-0.16597,1.22342-0.28822
				C334.12857,77.52129,333.49298,77.60378,333.67883,77.72105z" style=""></path>
			<path fill="#0560af" d="M314.99185,76.23625c0.40128,0.03379,0.73843,0.06162,1.10168,0.09143
				C315.6734,76.20345,315.25076,76.13488,314.99185,76.23625z" style=""></path>
			<path fill="#0560af" d="M393.64832,131.71754l0.4234-2.92389C393.63242,128.58893,393.74573,130.29138,393.64832,131.71754z" style=""></path>
			<path fill="#0560af" d="M388.29749,284.00809c0.06583,0.61319,0.1908,1.12204,0.35403,1.58817
				c-0.04794-0.5029-0.09439-0.98889-0.14236-1.49176C388.43588,284.07767,388.37302,284.05478,388.29749,284.00809z" style=""></path>
			<path fill="#0560af" d="M394.74057,179.96663l0.00198,0.8885c0.15305,0.26137,0.3389,0.50685,0.54761,0.73842
				L394.74057,179.96663z" style=""></path>
			<path fill="#0560af" d="M394.94754,216.99524c0.04944-0.83781-1.09448-1.12901-1.59415-1.45003
				c0.47086,0.47307,0.69571,1.09224,0.78391,1.82669C394.35519,217.38483,394.61533,217.2755,394.94754,216.99524z" style=""></path>
			<path fill="#0560af" d="M392.93399,275.7095l0.15802,1.04254C393.05078,276.48071,392.98172,276.02454,392.93399,275.7095z" style=""></path>
			<path fill="#0560af" d="M394.98804,153.46382c0.16995-0.06261,0.31927-0.19579,0.4097-0.33791
				C395.25363,153.12592,395.11722,153.25909,394.98804,153.46382z" style=""></path>
			<path fill="#0560af" d="M348.83868,315.15314c-0.02982,0.08148,0.01218,0.13318,0.00247,0.20374
				C349.05658,315.2406,349.12317,315.1601,348.83868,315.15314z" style=""></path>
			<path fill="#0560af" d="M391.76053,320.82004l-0.59482,0.06161c-0.0636,0.21664-0.12869,0.42932-0.12869,0.64102
				L391.76053,320.82004z" style=""></path>
			<path fill="#0560af" d="M280.79272,74.77033c0.06659,0.00994,0.08945,0.01292,0.15182,0.02187
				C281.84421,74.662,281.33463,74.68486,280.79272,74.77033z" style=""></path>
			<path fill="#0560af" d="M4.37306,122.6199c1.02254-3.55598,1.31361,5.78813,2.44858,0.43331
				C6.37466,123.55212,5.03781,118.18637,4.37306,122.6199z" style=""></path>
			<path fill="#0560af" d="M388.44754,283.04901c-0.01291-0.49988-0.02286-1.00775-0.01166-1.51758
				C388.39883,282.22314,388.40207,282.68826,388.44754,283.04901z" style=""></path>
			<path fill="#0560af" d="M6.82164,123.05322h0.01019l0.10746-0.55257C6.89058,122.72923,6.86313,122.85842,6.82164,123.05322z" style=""></path>
			<path fill="#0560af" d="M201.99278,75.45808c0.16125,0.20174,0.47556,0.3548,0.80351,0.50089
				C202.76923,75.8417,202.5876,75.69859,201.99278,75.45808z" style=""></path>
			<path fill="#0560af" d="M260.69672,77.08599l-1.45248-0.15305C259.82016,77.03729,260.28751,77.07307,260.69672,77.08599z" style=""></path>
			<path fill="#0560af" d="M171.51286,77.07307c-0.78987-0.08746-1.0582-0.24548-2.13664-0.09143
				c0.10025,0.05764,0.19914,0.09839,0.32784,0.13914C170.09427,76.96375,170.61317,76.8912,171.51286,77.07307z" style=""></path>
			<path fill="#0560af" d="M139.78777,77.08002c0.16797,0.08746,0.39021,0.15305,0.58525,0.23058
				c0.31444-0.01888,0.68153-0.04175,1.0054-0.06162L139.78777,77.08002z" style=""></path>
			<path fill="#0560af" d="M252.42348,315.70374c0.69519,0.32199,1.12727,0.67679,1.46468,1.02863
				C253.39894,315.9184,258.05981,315.6282,252.42348,315.70374z" style=""></path>
			<path fill="#0560af" d="M388.94049,283.99219c-0.28897-0.18585-0.43134-0.45618-0.49295-0.94318
				c0.02136,0.36475,0.04175,0.71359,0.06161,1.05548C388.67911,284.1969,388.84012,284.2168,388.94049,283.99219z" style=""></path>
			<path fill="#0560af" d="M170.22298,86.10014l-5.04028-0.16895C166.59184,86.04151,168.42361,86.10014,170.22298,86.10014z" style=""></path>
			<path fill="#0560af" d="M24.82523,315.86673l1.15708-0.13718C25.53657,315.70374,25.12599,315.73651,24.82523,315.86673z" style=""></path>
			<path fill="#0560af" d="M150.22461,86.10014c-0.89967-0.4035-1.85352-0.63805-2.83853-0.7911
				c-0.20871,0.08945-0.44711,0.16299-0.58537,0.29517L150.22461,86.10014z" style=""></path>
			<path fill="#0560af" d="M253.89909,316.74429c-0.01094-0.00497-0.01094-0.01193-0.01094-0.01193
				S253.88815,316.73932,253.89909,316.74429z" style=""></path>
			<path fill="#0560af" d="M287.09967,314.02612c-4.80325-0.03281-2.25604,1.47186-3.27496,2.33554
				c-5.73248,0.42633-2.65283-1.10815-4.60397-1.8764c-3.57959,0.39755-6.32458,1.77798-8.9938,1.71936
				c-0.19901-0.24747-0.71805-0.33789-0.1098-0.64798c-3.78406,1.19559-11.23343,0.05862-15.64235,1.56033
				c-0.32773-0.13318-0.49319-0.2594-0.57568-0.37268c0.71407,0.75333,0.82364,1.51859,0.67731,2.0632
				c-2.15292,0.02585-3.9955,0.9501-4.80574-0.03281c1.31958,0.02884,1.4294-0.36771,2.04732-0.6748l-2.25603,0.42734
				c-2.03091-1.41324,3.07968-0.48895,3.07968-1.53546c-4.39925,0.46014-9.52623,1.62988-12.89735,1.23038
				c-0.70464-1.38245,7.88292-0.46512,3.38454-1.69452l5.21643,0.52774c-3.98605-2.18051,3.16911,0.15305-0.49319-2.18051
				c-6.86398-0.40051-7.67818,0.70465-14.52452,0.30115c-1.54195,0.76825,0.50935,1.13696-1.03247,1.90518
				c-9.73233,1.38046-7.66068-3.47644-14.81584-1.63486c-1.85216,0.9213-2.57033,2.67047-7.66476,1.74518l1.73698-1.56329
				c-6.64583-0.15405-3.79375,2.24707-10.75388,1.19559c1.23709-0.6142,5.22314-0.51779,4.21786-0.70364
				c-4.50919-1.23434-3.18948,0.88651-6.65527,0.88651l-0.71817-1.38443c-7.07529,0.21765-14.86876,1.21747-22.70546,1.46991
				c0.43356-0.41147,1.77625-0.84479-0.0569-1.26816c-9.88264,0.69171-21.09731-0.16895-30.63037-0.98987l-3.64194,1.19461
				c-0.84688-0.01392-1.57176-0.53967-0.65443-0.77124c-3.71512-0.45319-0.19244,0.75732-1.97813,1.22742
				c-2.11365,0.08347-2.79257-0.68677-1.4525-1.04553c-6.55638,1.01273-18.67605,2.1825-25.58338,0.9024l1.34679-0.3548
				c-5.37893-0.48499-6.0699,2.44882-11.05874,1.33475l0.95657-0.2117c-11.67381-0.51779-24.57526,0.57642-33.48232-1.22739
				c-1.69363,1.72131-11.55467-0.76727-12.30527,1.63287c-6.6662-1.18964-4.75715-1.61798-14.14524-2.41803
				c-2.5066-0.11032-3.73685,1.49872-6.83689,1.74918l-0.07578-1.25522l-4.20843,1.31683l-2.23963-1.5007l-2.90761,0.32199
				c1.15845,0.07355,2.46187,0.56351,2.28572,0.92529c-4.54161,0.56747-11.07092-0.8746-11.18334-1.51761l-0.9972,0.09839
				c-0.12932,0.01691-0.41481,0.03281-0.41605,0.04968l-0.10634,0.04871c-0.14697,0.06558-0.31368,0.13217-0.50028,0.19778
				c-0.37331,0.13116-0.82613,0.26236-1.35858,0.39355c-0.09106-0.18686-0.18212-0.41245-0.27318-0.67581
				c0.42574-0.16696,0.61544,0.07056,0.85756,0.09143l0.2748-0.14212c-0.12584,0.07056-0.23989,0.13318-0.29902,0.16599
				c-0.42934-0.14908-0.07218-0.52875,0.25293-0.72552c0.32524-0.27927,0.61854-0.30014,0.06162-0.53467
				c-0.28449,0.19278-0.74737,0.0437-1.00105-0.01096c0.04746-0.07153,0.09193-0.0795,0.13355-0.20273
				c0.03665-0.18884,0.07553-0.38959,0.11653-0.60028c0.07218-0.42239,0.1333-0.88751,0.18448-1.38544
				c0.10237-0.9968,0.16436-2.12582,0.19268-3.31049c0.05665-2.3703-0.02149-4.96423-0.181-7.17056l0.86464,0.84674
				c0.21976-7.9696-0.4153-16.8009-0.3994-25.74548c-0.40338,3.2081-1.90222,2.47067-2.04632-0.15207l1.32666-1.04849
				c-0.82067-1.69351-0.50189,2.73901-1.50455-0.73746c0.15305-3.34128,1.50778-2.24606,1.93886-0.32794l-0.46002-4.06186
				c0.39654-0.23853,0.60537,0.71359,1.11012,0.96204c-0.8239-1.66666,1.33076-7.01154-0.09926-9.41666l0.39443-0.22858
				c0.01093-8.9416-0.44537-12.99649-0.5117-20.28036c-1.14516-0.14212-0.89073-2.99046-1.816-5.16103
				c0.36474-5.35184,1.26442-11.29303,1.16789-17.74208c-0.56947-4.53293-0.96924-1.32381-1.64903-3.36217
				c1.04167-0.33295,0.9444-6.77405,1.69264-3.43274c-0.16895-7.74104-0.20684-9.88675-1.05347-19.6761
				c-0.42835,1.06241-0.61308,2.25702-0.96887,1.63785c-0.17181-1.776,0.43717-4.04196,0.93831-3.78654l0.10709,0.46811
				c-1.56245-10.98793,3.04041-25.36089,0.86663-34.11069l0.10746,0.48996l-1.13286-9.07378
				c0.18075-4.17415,0.78402,2.50449,1.42877-0.58537c-1.73898-9.78737,0.25281-15.4642-0.90614-23.52427
				c3.07594-6.23935-0.21653-22.14083,1.74718-30.56266l-0.72464,0.48599c-0.71072-2.17553,0.41443-2.63269,0.58053-4.23676
				c-0.56252,0.22759-0.65097,2.36137-1.04453,1.00974l-0.09802-2.4051l-0.01988-0.60326
				c-0.00621-0.2425-0.01217-0.16399-0.01789-0.26237l-0.03068-0.34785c-0.03615-0.47208-0.05392-0.968-0.0559-1.45399
				c0.56686-0.00199,1.15969,0.01788,1.72134,0.05565c1.77674,0.05466,3.56044,0.10833,5.34911,0.16299
				c3.93425,0.13815,7.88975,0.32996,11.84947,0.53866c7.91919,0.4194,15.85465,0.90738,23.66787,1.17771
				c6.91404,0.19379,3.92382-3.74779,12.63994-2.0185l-2.47404,1.34467c13.95281-1.61201,28.53013,0.05566,42.18901-1.31287
				c-0.81433,0.31007-0.83731,0.71358-2.17056,0.70861c2.88451,0.97694,10.66853,0.0477,10.71723-0.75035
				c2.1272,0.09143,0.49319,0.72153,1.80345,1.12701c2.89407,0.57643,7.26363-1.24727,8.80148-0.27529
				c0.26138,0.15901-0.81297,0.31703-1.3428,0.39256c1.88606-0.47307,8.78656,0.12025,6.9805-1.00676
				c5.12698,0.53767,9.80675-0.50189,13.89592,0.16597c2.66647-1.26019,8.77576,0.60724,9.62251-1.17571
				c-0.36711,1.84159,8.98708,1.48579,12.22935,0.61916c-1.08527,0.55655,2.8183,0.57643,1.54729,1.34765
				c3.69896-0.02584,7.08896-0.36772,6.44395-1.31386c6.81516,2.20335,13.69815-1.77302,17.53525,1.05049
				c10.98817-0.98987,21.1568-1.65872,31.04082-2.09105c-0.35629,1.83662-10.92593,0.18287-10.50182,2.11092
				c9.37729-0.75631,14.78603-2.33255,24.08479-1.88929c2.40759,0.25044-1.36702,0.79607-2.17999,1.11012
				c9.36772-0.75631,18.11354,0.16697,26.4489-0.83284c-0.02286,0.17094-0.92255,0.35779-1.77203,0.49792
				c1.64334-0.06062,3.82083,0.27032,3.63525-0.5645l-1.60159,0.2256c-2.62299-1.21149,6.52383-2.53033,6.81778-3.17036
				c-2.78824,2.39217,8.23373,0.60127,3.80466,3.62454c1.0813-0.15802,2.43741-0.55357,2.18945-1.11211
				c1.60431,0.16299,2.11365,0.48898,0.48648,1.12404c5.88431-0.45419,3.79373-1.34169,9.12521-1.32281
				c-0.01889,0.4045-1.09473,0.56053-1.64606,1.03559c2.69879-0.78812,5.41147-1.57624,9.91656-1.23436
				c-0.27106,0.24349,0.25195,0.56053-1.09222,0.55457c7.73782-0.12224,13.18878-2.098,21.67722-1.33672
				c-2.504,1.75513,2.88736,0.57742,3.33707,2.09701l4.56473-0.45319l-1.83191-0.73743
				c3.99847,0.02583,7.5321-1.08131,10.9693-0.58339l-2.97134,0.62612l7.49283-0.28822l-4.24097-0.57643
				c4.04568-0.78314-0.43356-1.92308,4.88846-1.4997c-1.08105,0.15603,3.99973,0.01888,6.08356,0.91433l-0.01343,0.00397
				c1.978-0.484,4.01315-0.99384,6.96957-0.61618c0.76825,0.48599-0.61792,1.68059-0.11801,2.00459
				c1.95117-1.27013,9.36374-0.35282,11.83517-1.70643c-0.82364,0.31802-0.86713,1.11608-0.59604,1.27808l1.63809-1.03161
				c1.85202,0.32996,2.12311,0.48997,1.8222,1.12603c5.5715,0.18883-1.76953-1.92706,4.8425-1.09721
				c-0.51901,0.08348-0.27106,0.23753-1.35211,0.39455c3.32068,0.21666,6.52856,0.05267,9.66885-0.10137
				c1.57001-0.07752,3.12338-0.15205,4.66559-0.17591c0.77121-0.01192,1.53946-0.01093,2.30573,0.00895
				c0.56573,0.01987,1.10764,0.05764,1.62766,0.12125c0.30164,0.76526-0.58737,0.85868-1.30219,0.92229
				c-0.24323,0.01789-0.48499,0.03577-0.69891,0.05168c-0.28574,0.02286-0.53394,0.05267-0.70935,0.10137
				c-0.35059,0.0974-0.40997,0.26734,0.1051,0.58935l0.93546-0.03379l0.47009-0.04274l0.92749-0.10832
				c0.7049-0.09442,1.41473-0.18983,2.12708-0.28524c0.26709,1.55139,0.58264,2.78475,0.7988,6.59415
				c0.2164,3.21607,0.33368,6.38544,0.20422,9.43852l0.16898-1.58617c2.15887,1.1797-1.06616,6.34072-0.04846,10.64704
				c-0.16025-1.05447-1.19882-1.38243-0.95831-1.0972c-0.34686,5.83087,0.53098,11.92114,1.21075,20.75642l-0.55557-1.09423
				c-0.49518,3.43572-0.28546,9.04894-0.5379,12.76194c0.55356,1.10118,0.46338,3.22403,1.27014,1.93402
				c-3.15845,11.4451,1.69348,21.83174-0.93796,31.98683c-0.00595-1.21347-0.48523-2.89406-0.48798-1.92805l0.5116,8.64941
				c0.9404-0.68376,0.56946-1.13397,1.30191-2.95071c0.55756,1.09521,0.98987,3.53609,0.98987,5.67981
				c-0.62314-3.88989-1.51062,0.0338-2.03537,1.71439c0.28821-0.28226,0.60623,0.29417,0.89941,0.15106
				c-1.67361,4.519,1.89227,0.7583,0.76526,6.92708l-0.49393-0.32697c0.25244,2.3087,0.9054,4.43651,0.76425,6.92609
				c-1.08826,1.03261-0.5076-2.45776-1.40329-2.61578c0.06259,3.49634,2.06146,6.90024,0.97693,10.06563
				c-0.3031-1.48579-0.30807-3.62155-0.60922-5.10735c-1.27707,3.44763-0.95309,3.84715-1.15582,6.4073l0.02881-0.25145
				l-0.57843,5.92032l0.34613-1.50764c2.8374,4.37688,0.51852,8.91179,2.37701,14.80626
				c-1.75909-5.72949-1.0177-0.94713-2.25079-1.38541c-0.34189,1.50467-0.72577,3.79349-1.07263,3.14154
				c0.99484,2.78574-0.7829,4.65118,0.67087,8.58382c-0.39731,0.1759-0.03876,2.98053-1.03558,2.35143
				c0.31204,3.62357,0.6907-0.8557,1.18863-0.55157c1.35684,5.5844-1.64456,13.12569,0.21689,21.15694
				c0.76501,6.92609,2.10474,8.20715,2.7706,14.63434c-0.63507,2.16956-1.44604-1.776-1.44604-1.776
				c-0.58438,3.49933-0.47705,6.13202-0.02261,9.43057c-0.3461-0.66885-0.63928,0.01987-1.08527,1.02563
				c0.1041,2.64563,1.4458,1.76904,0.86041,5.25943c-0.44202-0.59927-1.1506-1.36752-1.59488-2.64362
				c0.36551,3.11868,1.1069,6.19858,1.46469,9.42758c-0.69171,0.85669-1.0495-1.94794-1.50046-3.08688
				c0.31107,3.62854,0.62613,9.40176,1.7211,10.52283l0.39081-2.32758c0.05368,1.32181-0.9404,0.67978-1.14017-0.29617
				c-0.8587-3.10873,0.37891-4.48422,0.77817-4.66013l0.25443,2.29877c2.32782-2.36139-0.37369-9.2348-0.23853-13.86313
				l1.69351,1.92905l-1.4053-4.74759c0.44052-1.00876,1.38666-1.70047,1.63986,0.58539
				c0.83606-3.31845-0.60229-2.93683,0.33093-5.78815c0.14536-0.31406,0.22659-0.17194,0.29343,0.11926l-0.50388-3.24191
				c0.3558,0.63504,1.19559-0.53967,0.95087,1.452c0.97696-5.81897-1.27014-9.38388,0.01291-11.57431l0.10437,0.48599
				c-0.57245-8.07397-1.24405-0.78015-2.70227-6.83664l3.06702-4.07574l-1.24332-0.79408
				c0.04474-0.83284,0.13815-2.48064,0.63507-2.17552c-0.85074-3.1008-0.54065,0.52773-1.34366-1.27113
				c1.13199-4.00916-0.52972-11.0545,1.45123-11.95891c-0.94537-1.4381-0.72946,3.83524-1.38666-0.44524
				c2.12982-1.22044-0.36472-4.94835,0.61221-8.61066c1.09918,1.12503,0.51706,4.59453,1.49896,0.92924
				c-1.85873-2.20932,0.40625-7.13182,0.05045-10.22069c-1.47885-0.1451-0.61618-6.71838-1.10889-11.90227
				c0.49594,0.32797,0.81174-9.75456,1.34665-14.57669l0.24823,0.14212c-1.49475-0.93422-1.21249-5.90939-1.52231-9.53096
				c0.89618,0.14212,1.24802,0.79408,1.64853,2.75594l-0.00696-3.40491c-0.47903-0.80302-0.73148-1.86545-0.9024-4.07376
				l1.11707,0.8557c-0.06161-4.53194-1.31558-9.12646-0.56946-14.95734c-1.04254-0.32797-2.90204,4.63727-3.59872-1.52853
				c0.56351-0.22958,1.52756-0.45717,1.75836,1.15683c-0.07452-0.52873-0.46835-1.88432-0.2276-2.94972l0.94791,2.46373
				c0.41666-2.65555-0.79211-1.38939-0.70364-3.51224c0.80402,0.04173,0.57343-1.57127,1.21149-1.26715
				c0.07751,0.54263-0.3327,1.85252-0.01691,2.66548c0.1441-2.39417,0.6214-5.28824,1.2294-6.24431
				c-0.45718,0.20772-1.08231,0-1.18665-1.75414c-0.05865-4.53192,0.96701-1.55139,1.3797-4.19402
				c-0.5578-1.09821,0.02087-3.98929-1.18094-4.06482c0.0062-1.32678,0.56674-1.57227,0.8927-2.08409
				c-0.53094-2.34547-0.15228-10.95613-1.43039-8.3125l-0.08447,0.60127c-0.01538-0.1123-0.03354-0.24449-0.05243-0.38263
				c0,0.01889,0,0,0,0.01889v-0.01889c-1.19482-7.68837,0.68079-15.97105,0.16699-23.5988l0.40125,0.01192
				c-0.45914-4.55379-0.2713-10.13422-1.13596-13.38607c0.00101-1.34666,0.73471-3.17831,1.21249-2.60287
				c-0.15082-1.74022-0.33942-2.70822-0.40698-3.86903c-0.03403-0.58041-0.03751-1.2095,0.0087-2.00756
				c0.08124-0.97894,0.17963-2.16559,0.30807-3.71001c0.35059,2.23415,0.50613,1.88631,0.5603,1.65872
				c0.02731-0.10236,0.02905-0.1441,0.0174,0.26237c-0.0087,0.32399-0.02734,1.00478-0.06412,2.35342
				c0.18436-2.37827,0.31131-4.0181,0.43033-5.55359c0.10287-1.7601,0.121-3.46255-0.07925-5.46713
				c-0.99756,0.09641-2.28635,0.24448-3.73312,0.45816c1.50916-0.51481,0.56052-0.83881-1.43585-0.99583
				c-0.9834-0.07851-2.19366-0.11529-3.35919-0.1133c-1.34888,0.00298-1.76108,0.04373-2.37802,0.12025
				c0.58115,0.12324,0.9382,0.24548,1.70322,0.36872l2.23886,0.36871c-0.85968,0.02485-1.69202,0.04771-2.50473,0.07156
				c-0.58163,0.00099-1.14938,0.00199-1.7084,0.00298c-1.09894-0.03478-2.16409-0.06857-3.23795-0.10336l1.16104-1.35461
				c-9.2554-1.64779-16.69107,2.80363-23.73669,0.04572c-2.44833,0.94714,5.02686,0.66687,2.83719,1.77501
				c-4.25714-0.18287-8.6929-2.12682-10.02615-2.13081c-5.8316-0.75035-5.44128,1.97874-11.54398,1.46592
				c0.78067,0.48202,1.51761,1.77203-3.04291,2.2272c-4.26135-0.17889-5.23679-2.02644-2.54721-2.41405
				c1.02142-0.04074,1.51462,0.1123,1.47137,0.27629c1.3765-0.17591,3.18256-0.38263,1.49576-0.90639l-0.55283,0.48301
				c-2.11368-0.49294-7.97485-0.44126-6.59839-1.23435c-3.2193,0.46114-1.37646,0.79309,1.00803,1.04353
				c-5.46417-0.69966-8.53714-0.02087-14.16129-0.49096c0.89423,0.26636,1.71786,0.83384,0.82764,0.82887
				c-8.24991-0.59829-3.63251,0.91633-9.22263,1.12801c-3.17609-0.73643,1.13794-1.75811-4.48895-1.14093
				c-3.43594-0.49891-0.72748-1.28206,0.63831-1.67562c-5.12698,0.93124-9.57941-0.61221-12.50726-0.78315l2.70026-0.38958
				c-1.61499,0.23156-2.93729,0.2246-4.28421,0.22163l1.54196,0.96701c-1.58517-0.16796-2.92786-0.17294-2.89804-0.57445
				c-1.63412,0.63308,1.25049,1.60705-1.99191,2.47269c-2.11365-0.49096-6.43713,0.52673-7.16736-0.75533
				c6.64856,0.4353-0.73444-1.28802,4.8927-1.49474c-1.08527,0.15305-2.40909,0.14709-3.99973-0.02286
				c-0.23853-0.14312,0.22485-0.26536,0.65842-0.33891c-6.36133-1.1459-2.92389,1.45002-9.51678,1.4202
				c0.83731-0.72253-1.52829-1.37051-2.60413-1.21646c2.6568,0.01491,1.27087,1.20553-1.16678,1.7591
				c-4.22705-0.56252-4.59427,0.4184-6.80832,0.35281l2.52686,0.26535c-0.8562,0.72153-2.96985,0.62712-5.91684,0.85471
				c-0.25195-0.56252,2.67593-0.3866,1.62469-0.63506c-3.27225,1.27013-7.39371-1.31486-11.9557-0.45915
				c-2.11365-0.48997-0.20473-1.35759-2.06097-1.68954c-5.11333,0.93719-5.53745-0.98987-10.91228-0.21566
				c1.54866,0.97098,1.81961,0.73345-1.96471,1.68059l8.83527-0.68377l-5.67012,1.41225
				c2.66649,0.01392,5.62689-0.61121,7.22424-0.44524c-2.70151,0.79209-2.42374,0.55059-1.14763,1.3566
				c-3.64865-1.45698-7.23369,0.84874-11.45157-0.13516l0.12871-2.4051c-6.34097-1.07137-11.26596,1.23435-19.49982,0.6301
				l2.64622,0.41741c-1.10428,0.95608-5.08363,0.13317-7.75011,0.52077c0.24796-0.80402-1.41859-1.09521-2.55667-1.59612
				c0.13815,0.59631-6.02666-0.05466-6.77452,1.5504l-3.67586-1.05845c-6.64856-0.43331-7.58749,2.28982-13.97865,2.01651
				c1.92532-0.87359-0.97955-1.44306,3.30193-2.06818c-2.13391-0.00796-4.05252-0.15504-4.08632,0.4025
				c-1.24652-0.50388-5.91696,1.08229-7.87881,0.31902c-0.89967,0.35281-1.19373,1.1946-3.58913,1.12801
				c-0.26151-0.16299,0.00943-0.39754,0.00943-0.39754c-0.00943,0.39754-3.75038,0.54065-1.65698,1.43014
				c-6.57266-2.50747-18.37119,0.18188-24.09436-1.97079c-4.65677,0.26933-10.2674,0.52773-14.4947,0.58636
				c0.27094-0.24051,0.01354-0.40052,0.81297-0.31704c-5.8315-0.74737-3.58517,2.30671-10.22143,1.47288
				c-3.39-1.29895,3.52404-0.70264,1.41051-1.1946c-0.92005-2.64462-8.00888,0.36176-12.47472-1.18268l1.0813-0.15603
				c-3.4131-0.89844-8.32865,1.00179-13.90548,0.81296c0,0,0.27107-0.23355,0.03255-0.39952
				c-3.814,1.34864-11.03439,1.79488-16.39978,2.16956c1.66928-1.03459,2.43752-0.54761,1.41859-1.59909
				c-2.40498,0.14908,0.70464,1.68854-4.09588,1.98272c-1.56083-0.56649-5.02399-1.06142-5.48328-2.18348l4.52808-0.06062
				c-2.31963-1.452-5.86132,0.0497-8.24728-0.20274l0.30486-0.63407c-6.93988,0.20573-7.03604,1.80482-14.49483,1.69053
				l0.77097,0.48003c-4.0755,1.58418-3.41708-0.89049-7.48314,0.28722l-1.23025-1.60704
				c-2.68946,0.3876-9.42064,1.55338-14.24413,1.85551c2.73282-1.19162,8.37611-1.80084,11.86897-2.50846
				c-2.66648-0.01192-9.06025,0.11826-10.44902,0.91135c1.07447-0.15504,2.42796-0.5486,3.48889-0.30113
				c-3.27074,1.26317-7.57395,1.88432-12.88654,1.8565c0.30797-1.01869-1.06627-1.45499-3.18949-1.66569
				c-0.81085-0.10535-2.92898-0.15405-4.8353-0.19081c-1.98669-0.03876-4.0796-0.08051-6.10356-0.12025
				c-0.06125,2.07117-0.15902,4.05885-0.34623,5.81596c-0.09355,0.87756-0.20945,1.69947-0.3543,2.44585
				c-0.07243,0.37369-0.15206,0.72749-0.23976,1.05944c-0.04795,0.16796-0.09379,0.32796-0.13777,0.48102
				c-0.04795,0.12423-0.09802,0.19082-0.15044,0.28027c1.15286,9.39778-0.49096,18.6435-0.3061,29.59267
				c2.42299-3.88294,0.06882,3.19621,2.55815,2.52436c0.1579,2.5502,0.11715,3.52219-0.0436,3.75077l-1.48666,7.72813
				c-0.72464,1.83165-0.54873-2.42598-1.10727-2.19144c-0.19094,5.58342-1.05472,2.3425-1.71624,6.0376
				c0.89036-0.75731,1.27498,1.94197,0.93508,5.12425l1.14801-4.48222c1.32454,7.80365-2.08918,6.74521-0.77719,14.61049
				l-0.78315-2.48759c0.46201,4.036-0.0159,14.88876,1.98359,18.84526c-0.28734,0.71358-0.968,1.65672-1.14789-0.11926
				c-0.30002,9.64525,2.12782,21.47098,0.89632,28.96754l-0.60811-0.73148c0.17579,1.79985,1.14304,3.1326,0.53084,5.38564
				c-0.25157-0.11629-0.60736-0.72452-0.64327,0.10832c0.2097,0.95309,1.06664,4.7804,0.71159,7.16463l-0.68463-2.03738
				c-0.79706,9.40871,1.66779,14.43954,2.08496,22.32867c-1.7919-0.01988-2.37404,7.38326-2.66424,11.07837l-0.25368-0.1292
				c-0.22138,10.95612,1.48505,18.6097,2.18844,28.75487c-1.94495,6.29797-0.81495,21.33282-1.90507,31.45413
				c0.32486-1.54742,1.39622,0.25244,1.57623,2.05127c-0.364,2.37531,1.24317,6.56635-0.39977,6.18967l0.03093-0.84674
				c-0.80601,0.89444-1.10192,2.5621-1.2018,4.48322c-0.04994,0.96005-0.05093,1.9837-0.04211,3.00537
				c0.00571,1.71439,0.0113,3.42578,0.01652,5.02487c0.71669,0.12723,1.43325,0.18585,2.14981,0.17691
				c-0.35008,1.86047-0.60736,3.97437-0.79222,6.22345c1.84793,0.18387,3.95475,0.29517,6.16717,0.3558
				c1.1172,0.01788,2.24671,0.03677,3.38404,0.05466c0.84564-0.00198,1.69699-0.00497,2.55057-0.00696
				c2.71058-0.04572,5.44812-0.21667,8.02777-0.35681c5.15941-0.27927,9.68699-0.43033,12.10302,0.81299
				c2.40498-0.53769,5.38576-0.53171,7.77036-1.06839l-0.1287,1.15286c6.66608,0.29416,9.99371,0.43927,18.23292,0.16397
				l-1.68009,0.82391c4.64734,0.07355,5.86814-3.32343,10.15496-3.39099l1.28988,1.72034
				c8.10777-0.02682,16.31443,1.4838,24.32605-0.07654c-0.13143,0.25143-0.36996,0.74936-1.68282,0.81894
				c3.81673,0.04471,14.76304,1.16476,13.377-1.19659c0.09479,1.53748,8.36518,0.15009,12.74418-0.52774l-0.68153,1.13397
				c3.69622-1.44901,3.81412-1.84555,8.9749-2.24707c1.22354,0.1481,1.07173,0.90839-0.55283,0.61816
				c4.07562,0.59433,3.17595-1.07434,8.11734-0.47006l-1.84135,0.72449c4.19341,0.08746,3.86009-0.30112,6.16891-1.14688
				c2.63666-0.45419,7.95459,0.28723,8.57376,1.31287c0.565-0.62512,2.86165-1.46194,5.33296-1.16577
				c0.33331,0.3876-0.56638,0.62811-1.01894,0.74536c7.01169,0.77222,10.42603-1.31882,15.24815-0.20471
				c0.10025,0.37567,0.41457,0.56351,0.81433,0.67679c-5.57011-0.02682-10.0562-0.08945-9.63617-0.17194
				c0,1.04553,4.49962,1.2294,0.92004,2.67346c3.61212-0.78812,9.78773-2.50153,14.17357-2.00955
				c0.2128,0.10135,0.42003,0.20074,0.57991,0.36176l-0.45381,0.11728c1.0121,0.10434,1.91849,0.00696,2.77206-0.16898
				c1.3997,0.17194,2.28845,0.29916,3.63251,0.31406c0.51891,0.86563,5.15953,0.4671,7.40326,0.50986
				c-0.18561-1.14493,2.75183-0.96106,0-1.90521c0.35629,0.08051-0.42412,0.13617-1.91588,0.18387
				c-0.33742,0.03378-0.73433,0.05069-0.95657,0.11826c0.04385-0.02881,0.09689-0.0636,0.15317-0.10037
				c-1.47287,0.01987-3.39409,0.04672-5.57683,0.07654c1.77228-0.58139,3.62442-1.07037,6.10518-0.4353
				c1.15175-0.73544,2.41852-1.49176,3.1326-1.84656c3.07022,1.5961,8.98843,2.45877,9.81221,3.44266
				c6.85031-0.64203,16.13828-0.42337,20.44547-2.57306c1.94843-0.27628,2.23962,0.61618,2.96724,0.9541
				c-1.12453,0.21567-2.46187,0.18286-3.07022,0.49194c3.894-0.55157,11.53839-0.21466,12.46788-1.71637
				c4.90871,0.6778-2.75853,1.38245,3.98618,1.13696l-0.9106,0.45917c13.26854,2.40012,21.57161-3.83328,36.28172-0.75235
				c-1.01895-0.18884-1.52829-0.27631-1.737-0.52774c16.77112,1.35858,34.56091-1.27509,51.10962,0.87955
				c4.70438,0.43433,5.21371-0.52475,8.08493-1.25421l1.01868,1.22937l4.90884-1.41821
				c6.96014-1.03857,12.05334,3.01633,20.86548,1.05249l-1.13669-0.82788c3.16513,0.15704,10.02487-0.48798,9.49664,0.46414
				c0.32376-0.15109,1.03784-0.86069,2.27493-0.42935l0.09613,0.64301l7.77435-1.10217
				c6.02667,0.46512-0.9429,2.55319,7.85159,2.67841c3.2695-0.24747,9.3096-1.87238,8.08218-2.30273
				c-1.31982-0.0318-3.37109-0.40051-3.47-1.0455l2.99023-0.33493c0.54214-1.89526,2.8414-3.83624-4.49814-5.16003l-5.11481,1.15881
				l-1.64755-0.91931l4.3046-0.05765c-2.44162-0.86563-3.9903-0.10037-5.7233,0.42538
				c-0.41046-0.48898-1.12851-0.83087-2.14346-1.01273l-5.02115,1.81079c-0.60849-0.7424,2.2518-1.47189-1.11783-1.88135
				c-2.35217,0.84079,2.25601,1.66269-1.63809,2.21527c-2.44687-0.86166-1.73303-1.56332-4.604-0.82788
				c-0.40375-0.48798,0.20474-0.79904,1.34268-1.0137c-2.55664,0.58536-6.76508,0.24747-8.08466,1.25522
				c-2.54996-1.06342-8.63077,0.27628-8.37885-1.51761c-0.80325,0.42935-4.50235,1.40826-6.85031,1.48282
				c4.28967-2.14771-8.78931-0.12622-7.65506-2.42896c-3.17459,1.93103-11.46796,0.8577-17.09088,1.92905
				c0.3143-0.15305,0.93222-0.46411,1.42816-0.36572c-3.16516-0.16-4.08521-0.7424-6.11887-1.10715
				c-0.40646,1.59512-5.33569,1.95987-7.99246,2.94376c-3.87921-1.53946,2.35614-1.87241,1.13794-3.35123
				c0.19528,1.29297-6.74048,1.29001-5.42093,2.36734c-2.9671-0.95212-2.55664-0.46216-4.08493-1.78397
				c-0.52026,1.99466-2.76263,0.33691-5.22314,1.56232c-4.29388-0.98291-1.10565-1.86841-5.82217-1.26117
				C282.90491,314.73273,287.09967,314.02612,287.09967,314.02612z M174.92297,317.47476c0-0.01096,0-0.02286,0-0.02286
				c0.96602-0.02686,1.78979-0.04971,2.31554-0.06461C176.75612,317.40518,176.08826,317.43103,174.92297,317.47476z
				 M165.49551,317.49265c1.14763,0.04471,2.57703,0.05267,4.08916,0.04471c0.33058,0.39557-0.02721,0.80203-0.97557,0.78116
				C169.1239,318.05515,166.90192,317.82657,165.49551,317.49265z M185.43561,325.42252
				c-1.49164,0.16199-1.99167-0.06262-2.19627-0.29715c0.70464-0.0199,1.52841-0.05865,2.60959-0.13715
				c0.04335-0.04276,0.1328-0.09146,0.17615-0.14014C185.88283,325.06671,185.72021,325.27145,185.43561,325.42252z" style=""></path>
			<path fill="#0560af" d="M188.11836,323.92181c0.21541-0.02484,0.33467-0.07355,0.61519-0.0835
				c-0.30487-0.10037-0.59482-0.18683-0.89024-0.25739c-0.18124,0.12323-0.36598,0.24844-0.52835,0.35876
				C187.58591,323.93375,187.86629,323.92776,188.11836,323.92181z" style=""></path>
			<path fill="#0560af" d="M393.46246,133.05426l0.02585-0.19878c-0.04547,0.16498-0.09018,0.31705-0.16275,0.41742
				C393.38098,133.13972,393.41675,133.13972,393.46246,133.05426z" style=""></path>
			<polygon fill="#0560af" points="35.32443,315.30319 35.33797,315.59143 36.16175,315.33899 			" style=""></polygon>
			<path fill="#0560af" d="M389.53482,184.97461c-0.1004,0.09839-0.20474,0.29417-0.29294,0.68079
				C389.31717,185.62558,389.42175,185.3324,389.53482,184.97461z" style=""></path>
			<path fill="#0560af" d="M389.27841,207.40167l-0.4075,3.17235C389.10248,209.20152,389.2128,208.20171,389.27841,207.40167z" style=""></path>
			<path fill="#0560af" d="M388.71091,224.64584c0.20078,0.21864,0.35184,0.28026,0.49023,0.33791l0.00894-0.0338
				L388.71091,224.64584z" style=""></path>
			<path fill="#0560af" d="M261.8851,84.74255c-0.23181,0.00597-0.46063,0.02087-0.66537,0.05168
				C259.65891,85.01586,260.71985,84.92841,261.8851,84.74255z" style=""></path>
			<path fill="#0560af" d="M343.47614,82.06911c-0.86588,0.20772-1.71957,0.41145-2.62323,0.54066
				C342.30539,82.69723,343.43417,82.72009,343.47614,82.06911z" style=""></path>
			<path fill="#0560af" d="M170.7758,86.12002c0.00943-0.00695,0-0.00993,0.00943-0.01987c-0.19504,0-0.3671,0-0.56226,0
				L170.7758,86.12002z" style=""></path>
			<path fill="#0560af" d="M337.05914,82.58989c1.45251,0.22759,2.6665,0.17889,3.79376,0.01988
				C339.66202,82.53324,338.2597,82.41597,337.05914,82.58989z" style=""></path>
			<path fill="#0560af" d="M388.19238,299.38382l-0.04797,0.83087c0.07556-0.01392,0.13718,0.03476,0.18387,0.09839
				L388.19238,299.38382z" style=""></path>
			<path fill="#0560af" d="M388.32828,300.31308l0.13516,0.92328C388.46344,300.81198,388.4545,300.44525,388.32828,300.31308z" style=""></path>
			<path fill="#0560af" d="M388.75165,303.17734l-0.28821-1.94098C388.46072,301.9082,388.42468,302.73706,388.75165,303.17734z" style=""></path>
			<path fill="#0560af" d="M388.72086,276.55624l-0.41544-0.26138C388.39188,276.43698,388.52533,276.52942,388.72086,276.55624z" style=""></path>
			<path fill="#0560af" d="M388.60059,269.61923c-0.09439,1.65475-0.88525,4.15128-0.62512,6.45996l0.32996,0.21567
				C387.68851,275.20959,389.30051,271.1915,388.60059,269.61923z" style=""></path>
			<path fill="#0560af" d="M393.72983,240.6646l-0.3317,5.81299c0.44202-1.01669,1.03632-2.35242,1.14267,0.2912
				C395.85962,239.44118,393.55191,248.28142,393.72983,240.6646z" style=""></path>
			<path fill="#0560af" d="M394.37109,222.64026c0.20547,3.12366,0.64178-0.03577,0.89224,0.12921
				C394.85983,220.78873,394.75769,220.3087,394.37109,222.64026z" style=""></path>
			<path fill="#0560af" d="M394.37506,92.3872l1.04132,0.31405C395.2673,90.29317,395.01288,92.67839,394.37506,92.3872z" style=""></path>
			<polygon fill="#0560af" points="378.89993,83.11563 381.24268,83.76263 382.35779,82.80854 			" style=""></polygon>
			<polygon fill="#0560af" points="364.19107,75.69859 365.24255,75.54951 361.22668,75.92717 			" style=""></polygon>
			<path fill="#0560af" d="M145.43094,76.06829l0.72762,1.28305C147.78572,77.12077,148.12723,75.6797,145.43094,76.06829z" style=""></path>
			<path fill="#0560af" d="M50.99137,77.37421c-1.02838-0.64103-3.68542-1.05347-5.32203-0.42338
				C47.79244,77.03928,49.9102,77.53918,50.99137,77.37421z" style=""></path>
			<polygon fill="#0560af" points="6.11439,325.58749 3.77948,325.85187 3.61463,324.68011 3.68755,325.94427 9.04548,325.65906 			
				" style=""></polygon>
		</g>
		<g>
			<path fill="#0560af" d="M36.20585,334.77557c0.25902,0.57843,0.60413,0.18188,0.28983-1.47287l-0.83508-1.08826
				L36.20585,334.77557z" style=""></path>
			<path fill="#0560af" d="M35.84931,323.39011c-0.60152-1.91315-1.49076-4.09265-1.92309-2.73605
				c0.91682,1.84955,0.71569,2.35739,1.7755,4.33813c0.31467,1.65674,0.19926,2.93979-0.08609,2.6933
				c0.2548,0.56552,0.22113,2.61084,0.76774,3.44864c0.20796-2.2421-0.16162-4.99405-0.99521-7.80264
				C35.44717,322.69443,35.70607,323.26688,35.84931,323.39011z" style=""></path>
			<path fill="#0560af" d="M13.75406,160.34917l0.06982,1.06142C13.82699,161.1174,13.80003,160.75465,13.75406,160.34917z" style=""></path>
			<path fill="#0560af" d="M64.21222,110.09648c-0.76613,0.12523-1.07782,0.23654-1.10801,0.30312
				C63.81145,110.25451,64.39161,110.13027,64.21222,110.09648z" style=""></path>
			<path fill="#0560af" d="M81.54807,108.38409c-0.37244,0.03577-0.68526,0.06659-1.02217,0.09839
				C80.92195,108.48944,81.31651,108.46857,81.54807,108.38409z" style=""></path>
			<path fill="#0560af" d="M13.75406,160.34917l-0.17343-2.72612C13.33653,157.46602,13.61555,159.02835,13.75406,160.34917z" style=""></path>
			<path fill="#0560af" d="M31.05004,301.15585c0.11292,0.56052,0.2415,1.02167,0.38338,1.44006
				c-0.08969-0.46112-0.17641-0.90637-0.26598-1.36554C31.12768,301.21051,31.09364,301.1936,31.05004,301.15585z" style=""></path>
			<path fill="#0560af" d="M20.61382,204.76401l0.1174,0.81992c0.10995,0.23058,0.23393,0.44325,0.36772,0.64203L20.61382,204.76401
				z" style=""></path>
			<path fill="#0560af" d="M25.56552,238.89456c-0.0851-0.77618-0.68948-0.96402-0.97894-1.2254
				c0.29505,0.4035,0.48736,0.95807,0.62724,1.62891C25.32339,239.29608,25.43781,239.17583,25.56552,238.89456z" style=""></path>
			<path fill="#0560af" d="M32.25843,293.17828l0.21467,0.9491C32.41719,293.87991,32.3234,293.46548,32.25843,293.17828z" style=""></path>
			<path fill="#0560af" d="M17.26531,180.30753c0.07578-0.06958,0.13243-0.20175,0.15852-0.3399
				C17.3524,179.97757,17.30233,180.10974,17.26531,180.30753z" style=""></path>
			<path fill="#0560af" d="M77.50363,331.6221c0.02186-0.04373-0.02062-0.0636-0.01678-0.10037
				C77.29641,331.60818,77.24076,331.65591,77.50363,331.6221z" style=""></path>
			<path fill="#0560af" d="M37.52604,334.43866l0.54413-0.10834c0.04348-0.11526,0.08845-0.22958,0.07367-0.33392
				L37.52604,334.43866z" style=""></path>
			<path fill="#0560af" d="M113.18682,104.63035c-0.062,0.00397-0.08336,0.00597-0.1415,0.00894
				C112.2249,104.82216,112.69312,104.74364,113.18682,104.63035z" style=""></path>
			<path fill="#0560af" d="M366.51343,105.60034c0.0405-3.35124,1.40854,5.24451,1.26913,0.22758
				C367.62653,106.31889,366.26199,101.46595,366.51343,105.60034z" style=""></path>
			<path fill="#0560af" d="M30.99886,300.26138c-0.06746-0.46112-0.13591-0.92923-0.20461-1.39832
				C30.86643,299.50211,30.92904,299.93243,30.99886,300.26138z" style=""></path>
			<path fill="#0560af" d="M367.78256,105.82793l0.00497-0.00099l-0.01913-0.5168
				C367.77411,105.5248,367.77734,105.64507,367.78256,105.82793z" style=""></path>
			<path fill="#0560af" d="M185.80133,93.97039c-0.16286-0.07851-0.4635-0.1133-0.77606-0.14311
				C185.05844,93.88194,185.23596,93.92865,185.80133,93.97039z" style=""></path>
			<path fill="#0560af" d="M131.5549,100.85275l1.35001-0.1143C132.36662,100.76231,131.93306,100.80505,131.5549,100.85275z" style=""></path>
			<path fill="#0560af" d="M213.79391,89.17907c0.73457-0.06062,0.99298-0.01689,1.97676-0.23454
				c-0.09653-0.01591-0.19069-0.02287-0.31219-0.02584C215.10977,89.04689,214.63632,89.15125,213.79391,89.17907z" style=""></path>
			<path fill="#0560af" d="M243.04782,85.02083c-0.16225-0.01093-0.37071-0.02484-0.55606-0.03777
				c-0.28847,0.05069-0.62538,0.11032-0.92279,0.162L243.04782,85.02083z" style=""></path>
			<path fill="#0560af" d="M166.37108,318.72302c-0.66364-0.06857-1.08713-0.18784-1.42293-0.31705
				C165.45638,318.7439,161.179,319.49823,166.37108,318.72302z" style=""></path>
			<path fill="#0560af" d="M31.36633,301.09622c-0.16734-0.15106-0.27343-0.39059-0.36747-0.83484
				c0.05814,0.33395,0.11404,0.65494,0.16858,0.96899C31.26372,301.30295,31.34595,301.31088,31.36633,301.09622z" style=""></path>
			<path fill="#0560af" d="M214.3486,84.5408l4.65964-0.57642C217.7011,84.09457,216.00783,84.30527,214.3486,84.5408z" style=""></path>
			<path fill="#0560af" d="M376.23221,288.8342l-1.05719,0.21964C375.58771,289.00812,375.96414,288.93854,376.23221,288.8342z" style=""></path>
			<path fill="#0560af" d="M232.78949,81.92203c0.85806,0.08249,1.75401,0.07355,2.67307,0.01987
				c0.18622-0.07156,0.40089-0.13914,0.51903-0.22262L232.78949,81.92203z" style=""></path>
			<path fill="#0560af" d="M164.93735,318.401c0.0103,0.00101,0.0108,0.00497,0.0108,0.00497S164.94765,318.40201,164.93735,318.401
				z" style=""></path>
			<path fill="#0560af" d="M134.51357,324.09473c4.4313-0.61319,1.97676-1.02365,2.85556-1.58517
				c5.2562-0.96204,2.52412,0.20078,4.37726,0.32599c3.27298-0.66586,5.70715-1.7084,8.17262-2.02942
				c0.201,0.09641,0.68588,0.07355,0.14671,0.3071c3.40541-1.08728,10.35448-1.5007,14.31445-2.82153
				c0.31169,0.02286,0.47295,0.0636,0.55717,0.10931c-0.71135-0.27927-0.86639-0.64398-0.76973-0.93222
				c1.98346-0.29517,3.61758-0.99384,4.4339-0.61319c-1.21895,0.15802-1.29237,0.36871-1.84047,0.60129l2.05017-0.50687
				c1.97215,0.4343-2.80537,0.646-2.73183,1.16379c4.02432-0.80402,8.66978-2.05429,11.80637-2.29776
				c0.74687,0.59134-7.23618,1.26218-3.00179,1.28204l-4.84735,0.42139c3.82904,0.55756-2.93307,0.3399,0.60811,1.01471
				c6.35762-0.70065,7.0307-1.35361,13.37228-2.05127c1.36778-0.58142-0.54971-0.49594,0.81805-1.07834
				c8.87726-1.95786,7.30847,0.71756,13.7769-1.13098c1.6432-0.69867,2.18236-1.65872,6.9451-1.86743l-1.49176,1.00079
				c6.13898-0.79407,3.34019-1.60904,9.83221-1.9996c-1.09744,0.46609-4.77988,0.94016-3.83983,0.90042
				c4.24471,0.02087,2.87878-0.85669,6.07462-1.30991l0.75954,0.59134c6.50893-1.03458,13.62509-2.5502,20.83394-3.70206
				c-0.37096,0.26038-1.57872,0.65097,0.14162,0.62015c9.06435-1.63586,19.46591-2.67938,28.31433-3.52118l3.27423-1.06836
				c0.78189-0.10437,1.48727,0.06161,0.65768,0.29614c3.45782-0.26236,0.12421-0.40051,1.73798-0.86664
				c1.94321-0.31802,2.62326-0.02582,1.41275,0.327c5.97449-1.35959,17.06799-3.52615,23.5275-3.79648l-1.21698,0.35181
				c4.99408-0.46411,5.4249-2.00757,10.10367-2.10892l-0.86737,0.22955c10.80109-1.27209,22.62085-3.5033,30.96118-3.77759
				c1.44058-1.07333,10.70868-1.13297,11.23218-2.42001c6.23041-0.28323,4.50012,0.17792,13.21338-0.65494
				c2.31915-0.27332,3.34058-1.23135,6.18146-1.76108l0.15826,0.61121l3.78806-1.20355l2.17078,0.45023l2.65854-0.54065
				c-1.07361,0.11526-2.30994,0.04373-2.17279-0.15802c4.14807-0.87659,10.27014-1.0177,10.41895-0.71359l4.91656-0.96701
				l2.45825-0.483l3.75797-0.66788c-0.08621,0.14014-0.82611,0.33096-1.85648,0.55161
				c-0.48102,0.10037-1.01474,0.21268-1.55835,0.32697c-0.33792,0.08548-0.68204,0.17294-1.00552,0.25443
				c0.28748-0.07355,0.54587-0.14014,0.77817-0.19977c0.23605-0.05862,0.39383-0.09937,0.78864-0.16995
				c0.65469-0.12222,1.14389-0.20175,1.5253-0.25244c0.76053-0.10135,1.09146-0.08743,1.32651-0.0477
				c0.46414,0.07953,0.53793,0.26437,2.92615-0.16199c-0.12152-0.62213-0.28674-1.4679-0.49966-2.55914
				c0.01242,1.0972-0.4917-0.80502-0.647-0.99582c-0.03006-0.88751-0.21341-2.68536-0.2554-3.34528
				c-0.08002-0.92627-0.19705-1.97079-0.33817-3.06601c-0.2825-2.18945-0.66089-4.57565-1.02887-6.59912l0.53891,0.72052
				c-0.93472-7.36438-2.40585-15.4632-3.5694-23.71309c0.2204,2.9865-0.61816,2.41306-1.03284,0.00398l0.51929-1.06044
				c-0.62811-1.50368,0.11029,2.56213-0.84131-0.57344c-0.36176-3.09184,0.45221-2.17751,0.91684-0.43929l-0.75955-3.713
				c0.16498-0.24747,0.39307,0.6162,0.67532,0.80899c-0.62613-1.47884-0.2594-6.55936-1.28232-8.67624l0.16522-0.23853
				c-1.16553-8.24593-1.92258-11.95296-2.90921-18.66537c-0.58563-0.05067-0.83261-2.69431-1.57501-4.6313
				c-0.52026-4.96027-0.85297-10.50194-1.74542-16.44214c-0.87558-4.13936-0.6532-1.15286-1.25647-2.98451
				c0.47183-0.37965-0.41989-6.3129,0.38809-3.28465c-1.0972-7.12585-1.39709-9.10161-3.0983-18.06906
				c-0.07281,1.00975-0.00797,2.12384-0.26511,1.57823c-0.31778-1.62593-0.31284-3.75772-0.03156-3.55797l0.11453,0.42438
				c-2.21255-10.02191-1.8165-23.5988-4.03848-31.51477l0.11752,0.44426l-1.74918-8.28667
				c-0.45715-3.86208,0.71606,2.25304,0.63062-0.64103c-2.14273-8.90285-1.90024-14.27755-3.52963-21.62901
				c0.70563-5.97002-3.0069-20.40062-3.13757-28.30466l-0.29517,0.49892c-0.63681-1.95688-0.13965-2.45679-0.26733-3.94755
				c-0.24872,0.24945-0.01294,2.22323-0.38489,1.00378c-0.23679-1.46989-0.47455-2.94774-0.71432-4.43652
				c-0.32944-2.25404-0.66113-4.52398-0.99631-6.81578c-2.55145,0.35381-5.11557,0.70861-7.68964,1.0644
				c-1.80579,0.22958-3.61856,0.45916-5.43655,0.68973c-3.63995,0.42735-7.30029,0.8557-10.96457,1.28504
				c-7.33035,0.84277-14.67657,1.68655-21.90729,2.5174c-6.38916,0.80899-3.35471,2.36932-11.51367,2.65456l2.18695-0.98987
				c-12.75275,2.62573-26.31226,3.70902-38.81107,6.17474c0.72925-0.25939,0.72202-0.46214,1.95166-0.63506
				c-2.72861-0.10535-9.84103,1.37448-9.82986,1.775c-1.9678,0.23355-0.50534-0.29219-1.74219-0.32101
				c-2.70923,0.09341-6.61006,1.56828-8.0966,1.28901c-0.25218-0.04472,0.72749-0.26337,1.21051-0.3707
				c-1.70569,0.48103-8.1105,1.09124-6.36606,1.41325c-4.76549,0.4045-9.00771,1.53251-12.8253,1.73724
				c-2.37007,0.97298-8.13486,0.84875-8.79042,1.84259c0.20908-0.96005-8.39163,0.44126-11.3205,1.29498
				c0.96167-0.41741-2.63914,0.08348-1.52144-0.46413c-3.40901,0.49693-6.51093,1.11012-5.84976,1.49375
				c-6.43924-0.19778-12.50653,2.67145-16.24338,1.77699c-10.06291,1.92905-19.39249,3.59175-28.47633,5.1004
				c0.19951-0.95608,10.06216-1.52157,9.53555-2.421c-8.59377,1.60307-13.47055,3.09184-22.07623,4.08966
				c-2.23776,0.19181,1.20467-0.57245,1.93228-0.83482c-8.58507,1.60108-16.71483,2.28981-24.33064,3.87598
				c0.00919-0.08746,0.82562-0.29815,1.59909-0.47803c-1.51114,0.24448-3.54218,0.36672-3.31236,0.75532l1.46095-0.32201
				c2.50398,0.25642-5.83796,2.10695-6.06406,2.46275c2.40311-1.5494-7.6347,0.78017-3.76306-1.29597
				c-0.98589,0.21964-2.20869,0.59333-1.94085,0.83781c-1.49077,0.1292-1.98347,0.03379-0.52748-0.49295
				c-5.39421,0.99484-3.40404,1.16081-8.3217,1.84954c-0.01093-0.20274,0.97012-0.42039,1.4453-0.72849
				c-2.43343,0.74439-4.87927,1.48977-9.05751,1.91016c0.2328-0.15603-0.27182-0.24448,0.968-0.41741
				c-7.1266,1.07335-12.01395,2.76587-19.89487,3.50031c2.18546-1.19659-2.703,0.09243-3.22465-0.60127l-4.17737,0.82291
				l1.74109,0.12522c-3.68877,0.50984-6.86932,1.52158-10.0741,1.72531l2.69593-0.69967l-6.88883,1.12404l3.95115-0.27032
				c-3.6756,0.91831,0.53494,0.89545-4.40235,1.38343c0.98602-0.21964-3.68952,0.51382-5.67397,0.34387l0.01217-0.00397
				c-1.79004,0.49891-3.63076,1.01769-6.38358,1.21745c-0.74252-0.13914,0.45158-0.91235-0.03217-1.00676
				c-1.70979,0.88352-8.60966,1.40032-10.79338,2.39417c0.73718-0.26536,0.72116-0.66587,0.4599-0.71059l-1.43797,0.7255
				c-1.73115,0.07851-1.99228,0.03478-1.7596-0.31902c-5.15084,0.63606,1.76718,0.72253-4.38819,1.17671
				c0.4727-0.10932,0.23318-0.15305,1.2192-0.3717c-6.15499,0.65494-11.78561,2.00458-17.44865,2.55219
				c-1.76792-0.52177,4.89008-0.88352,2.89904-1.25224c-1.76047,0.30511-3.54852,0.6142-5.34998,0.92626
				c-2.25068,0.4035-4.51776,0.80899-6.78261,1.21448c0.49332,2.79966,0.98589,5.59435,1.47089,8.3463
				c0.39393,2.30671,0.74302,4.5836,1.00714,6.80484L7.428,129.44958c1.22317,0.9362,0.30275,5.92232,1.37039,9.82117
				c-0.2174-0.96104-0.77445-1.19063-0.61805-0.94514c0.59196,5.40253,1.82407,10.95612,3.31782,19.05594l-0.41853-0.97098
				c0.20498,3.20316,1.04391,8.36517,1.40517,11.80586c0.41828,0.97694,0.65171,2.94078,0.88216,1.6955
				c-0.06472,10.77524,3.69747,20.01202,3.7248,29.56087c-0.162-1.11908-0.61917-2.63469-0.49406-1.74321l1.38616,7.93982
				c0.3758-0.69669,0.1333-1.08627,0.2579-2.81258c0.41953,0.96999,0.95322,3.19122,1.23398,5.16798
				c-0.81806-3.54306-0.74339,0.13715-0.78315,1.72333c0.10572-0.28027,0.33853,0.22858,0.46499,0.07652
				c-0.23666,4.28445,1.03608,0.56549,1.28603,6.33276l-0.28722-0.26634c0.42723,2.11191,1.02913,4.02704,1.28529,6.33376
				c-0.40338,1.02863-0.5732-2.23119-1.0372-2.31367c0.48897,3.22006,1.9242,6.21748,1.80184,9.21294
				c-0.34462-1.34865-0.62687-3.31845-0.97049-4.66609c-0.18076,3.26775,0.03205,3.6136,0.26709,5.98889l-0.01876-0.23454
				l0.4891,5.50092l-0.02621-1.41522c1.97775,3.83623,1.42381,8.1813,3.11582,13.48643
				c-1.62121-5.16002-0.62786-0.80202-1.29572-1.12006c0.02783,1.41225,0.13752,3.54901-0.11951,2.97258
				c0.85731,2.49953,0.22163,4.3441,1.45623,7.86827c-0.17355,0.18982,0.3712,2.75095-0.20461,2.24112
				c0.6291,3.31943,0.22983-0.83783,0.51618-0.59134c1.40294,5.05267,0.90489,12.21829,2.87829,19.49323
				c1.28578,6.33377,2.11664,7.42004,3.28813,13.29962c-0.03031,2.04532-0.9485-1.53549-0.9485-1.53549
				c0.16895,3.26776,0.56699,5.68774,1.22379,8.69711c-0.25877-0.59134-0.31368,0.0636-0.40288,1.02167
				c0.39816,2.43292,0.94751,1.53052,1.11484,4.79031c-0.29728-0.52176-0.74874-1.18066-1.13571-2.32559
				c0.58935,2.85034,1.3597,5.63809,1.95961,8.58978c-0.2302,0.83881-0.77458-1.72232-1.1469-2.74002
				c0.6291,3.32343,1.5412,8.62457,2.23006,9.58167l-0.11143-2.17453c0.19976,1.21545-0.37642,0.6937-0.60314-0.19183
				c-0.83222-2.80661-0.39977-4.1622-0.22511-4.35303l0.4271,2.10297c0.8429-2.34149-1.39449-8.48941-1.93377-12.76691
				l1.09099,1.65973l-1.31746-4.27948c0.08584-0.96106,0.46375-1.6647,0.88837,0.42535
				c-0.02062-3.11868-0.68264-2.66647-0.59419-5.36078c0.03081-0.30014,0.08969-0.17493,0.16088,0.08945l-0.67407-2.95471
				c0.25939,0.56055,0.52127-0.58139,0.66103,1.27213c-0.27852-5.43433-1.85774-8.56393-1.50952-10.67389l0.11529,0.44128
				c-1.34069-7.40512-0.71805-0.63208-2.23304-6.11511l0.9844-3.97339l-0.71929-0.64502
				c-0.08709-0.77121-0.25666-2.29675,0.02932-2.05127c-0.82713-2.79868-0.1984,0.52573-0.8316-1.07733
				c0.03528-3.77661-1.71003-10.1561-0.84775-11.12906c-0.65643-1.26019,0.141,3.58679-0.74476-0.31306
				c0.89446-1.27609-0.82862-4.5369-0.82464-7.98354c0.69147,0.96005,0.85769,4.20097,0.86377,0.75233
				c-1.20951-1.90718-0.73296-6.60507-1.31374-9.42958c-0.7511-0.02882-1.18478-6.15089-2.10757-10.8965
				c0.28834,0.26735-0.87582-9.05191-1.24255-13.53613l0.14162,0.1133c-0.86228-0.75533-1.37424-5.36278-2.00185-8.68121
				c0.46239,0.06857,0.72178,0.645,1.17708,2.42596l-0.44934-3.13956c-0.3425-0.70761-0.60649-1.66866-0.98042-3.69312
				l0.66513,0.7106c-0.62401-4.17514-1.84656-8.32344-2.24087-13.75281c-0.55904-0.22957-0.82924,4.48026-1.9816-1.15683
				c0.24896-0.25044,0.69631-0.52773,1.02192,0.94316c-0.10609-0.48201-0.47866-1.70444-0.49903-2.70326l0.79197,2.20435
				c-0.14162-2.47765-0.57407-1.22441-0.80837-3.18924c0.4035-0.01689,0.07814-1.48877,0.43381-1.25323
				c0.10945,0.49493,0.07789,1.73128,0.34076,2.45877c-0.24225-2.21727-0.38499-4.91953-0.2092-5.84479
				c-0.19902,0.22461-0.53593,0.07652-0.81706-1.53351c-0.62264-4.17413,0.27542-1.49773,0.13355-3.96443
				c-0.41978-0.97298-0.51208-3.68021-1.11696-3.6653c-0.17069-1.22342,0.07466-1.48877,0.16908-1.98471
				c-0.56997-2.12483-1.51027-10.09148-1.79687-7.56413l0.03714,0.56053c-0.02249-0.10237-0.0487-0.22362-0.07628-0.34984
				c0.00249,0.01788,0,0,0.00249,0.01788l-0.00249-0.01788c-1.59822-7.00461-1.75463-14.77448-3.00787-21.77213l0.20026-0.01689
				c-0.82377-4.16718-1.46169-9.32622-2.31565-12.26402c-0.17579-1.2423-0.05255-2.98252,0.25952-2.4856
				c-0.3184-1.59115-0.49605-2.47765-0.70836-3.53908c-0.0892-0.50785-0.18486-1.16876-0.2507-1.79588
				c-0.05243-0.53369-0.09528-1.1777-0.11454-1.90221c0.68463,2.32658,0.2256-0.62314,0.58736,2.30869
				c-0.04845-0.45319-0.04249-0.53369-0.05739-0.76327c-0.00745-0.18684-0.01441-0.36076-0.02087-0.52574
				c-0.00696-0.30213-0.01292-0.56749-0.01863-0.81496c0.52748-0.02782,0.93856-0.06261,1.4161-0.16199
				c0.36511-0.0805,0.75718-0.16696,1.1987-0.26436c0.55046-0.13715,1.1623-0.29021,1.86333-0.46611
				c-1.45188,0.72649,3.23086,0.19579,5.19196-0.23753l-2.97408,0.04969c2.21826-0.39058,4.17377-0.62214,6.16021-0.86066
				l-0.97546,0.8229c8.65029-0.39654,15.19399-3.57386,21.88467-3.1316c2.19105-0.78911-4.68212,0.32896-2.74102-0.50686
				c3.93848-0.4671,8.16554-0.08547,9.39529-0.2584c5.43011-0.39157,4.8784-1.69152,10.54169-2.23714
				c-0.75358-0.13615-1.52393-0.67879,2.64946-1.5007c3.94195-0.47009,4.97132,0.31703,2.51865,0.86066
				c-0.93918,0.15405-1.4048,0.14311-1.37635,0.05665c-1.25696,0.26735-2.90786,0.60625-1.3156,0.64401l0.4758-0.31107
				c1.98371-0.0328,7.38487-0.82588,6.17127-0.25343c2.93618-0.64997,1.2136-0.57245-1.00291-0.38461
				c5.08798-0.36871,7.87385-1.10814,13.09313-1.61201c-0.84327-0.01392-1.64282-0.18684-0.82166-0.30113
				c7.64961-0.78414,3.28515-0.92924,8.42518-1.76705c2.98042-0.05069-0.92577,1.01968,4.21948-0.02286
				c3.20353-0.20275,0.76104,0.53965-0.4707,0.91334c4.66224-1.13298,8.87626-0.95111,11.5882-1.25025l-2.46262,0.54661
				c1.47288-0.32597,2.69282-0.49593,3.93488-0.67084l-1.48977-0.27728c1.47362-0.12423,2.71207-0.29716,2.71281-0.09442
				c1.46232-0.52773-1.26615-0.63208,1.66283-1.48479c1.98346-0.03379,5.8987-1.10416,6.66222-0.5655
				c-6.1612,0.65594,0.76775,0.54164-4.40633,1.38045c0.98999-0.21765,2.21105-0.3876,3.68977-0.51183
				c0.22995,0.03976-0.18871,0.161-0.58338,0.25343c5.94641-0.26536,2.59418-1.10018,8.67575-1.94893
				c-0.72128,0.46711,1.50567,0.47804,2.48684,0.26138c-2.45107,0.3399-1.25658-0.43034,0.9521-1.02366
				c3.93761-0.27529,4.20718-0.80899,6.25339-1.06639l-2.34883,0.19976c0.73892-0.47009,2.69456-0.69967,5.39595-1.19858
				c0.27194,0.24548-2.44026,0.54165-1.45337,0.52773c2.92799-1.05745,6.91045-0.31803,11.05687-1.33871
				c1.98347-0.03478,0.28412,0.645,2.01912,0.56649c4.64932-1.13397,5.17581-0.23554,10.0777-1.3228
				c-1.49635-0.27728-1.72954-0.12424,1.69351-1.08926l-8.0992,1.49574l5.12935-1.44207
				c-2.45976,0.34288-5.14575,1.03957-6.63043,1.16678c2.43567-0.74538,2.1964-0.59035,0.96291-0.82191
				c3.46703,0.24349,6.61079-1.36752,10.56927-1.43312l0.05045,1.20851c5.92242-0.30113,10.3018-2.08707,17.93675-2.86624
				l-2.46933,0.14014c0.95099-0.61817,4.67827-0.73247,7.10983-1.27312c-0.17218,0.43034,1.38504,0.35679,2.46982,0.45518
				c-0.16945-0.27728,5.56105-0.76228,6.13785-1.65475l3.46405,0.04274c6.16119-0.65594,6.83553-2.12682,12.74814-2.82848
				c-1.714,0.68376,1.00465,0.58537-2.89941,1.45598c1.96831-0.2753,3.74779-0.45419,3.73984-0.73445
				c1.18491,0.08547,5.38005-1.31088,7.24275-1.18963c0.80476-0.29318,1.01671-0.74837,3.23036-1.02863
				c0.25256,0.04671,0.01913,0.19778,0.01913,0.19778c-0.01913-0.19778,3.4203-0.7583,1.42741-0.92527
				c6.23711,0.38065,16.92775-2.49554,22.35637-2.1795c4.27527-0.74339,9.43082-1.60605,13.32471-2.18844
				c-0.23306,0.15405,0.01564,0.19976-0.72725,0.26337c5.42986-0.39356,3.14351-1.61102,9.32176-2.06818
				c3.21732,0.19976-3.20044,0.80998-1.21674,0.77619c1.03436,1.18863,7.35968-1.2274,11.58624-1.04851l-0.9859,0.21964
				c3.21036-0.00298,7.60934-1.58717,12.76517-2.22423c0,0-0.23355,0.15107-0.00198,0.20175
				c3.4223-1.16677,10.04874-2.33354,14.97-3.22105c-1.4664,0.73048-2.20908,0.59035-1.19559,0.97695
				c2.20706-0.3886-0.76849-0.74339,3.63745-1.5176c1.4791,0.07553,4.70734-0.13218,5.20975,0.36275l-4.17117,0.62314
				c2.24112,0.41444,5.40131-0.79209,7.61929-0.97993l-0.23654,0.35381c6.38495-1.01073,6.36111-1.81476,13.24695-2.73505
				l-0.74463-0.13715c3.64691-1.31783,3.21359-0.00596,6.88013-1.12205l1.24753,0.63507
				c2.45279-0.54463,8.57785-2.00359,13.00443-2.78475c-2.4364,0.94813-7.5972,1.98868-10.76828,2.79668
				c2.4595-0.34387,8.34628-1.24529,9.5712-1.81973c-0.97992,0.21766-2.20038,0.58936-3.1962,0.60625
				c2.92737-1.05447,6.85181-1.92507,11.75244-2.60685c-0.21243,0.54462,1.08551,0.58041,3.05829,0.40648
				c0.98615-0.08646,2.14124-0.22659,3.36069-0.38064c0.69495-0.07851,1.42691-0.16199,2.13477-0.2425
				c0.0271,0.34387,0.05392,0.68178,0.07928,1.00577c0.00546,0.15405,0.01068,0.30511,0.0159,0.4522l0.00024,0.20771l0.02609,0.4204
				c0.06235,1.10416,0.05563,2.04036-0.06436,2.68436c1.80157,8.58482,2.19864,17.22628,3.72418,27.30882
				c0.6907-3.75076,0.4527,2.94276,1.59686,2.14769c0.41217,2.3405,0.51953,3.24093,0.46957,3.46156l0.27631,7.2312
				c-0.11877,1.74022-0.58936-2.19738-0.83508-1.94196c0.63681,5.16202-0.21542,2.23415-0.0589,5.68776
				c0.3414-0.76128,0.88553,1.70047,1.13397,4.65914l-0.01862-4.2139c1.67761,7.10201-0.15106,6.36656,1.52853,13.5272
				l-0.71335-2.23914c0.75732,3.68915,1.94199,13.73094,3.44989,17.23822c-0.04871,0.67879-0.26215,1.5961-0.58389-0.02882
				c1.11484,8.91476,3.8653,19.64926,4.23776,26.6489l-0.39706-0.63208c0.32275,1.6468,0.97623,2.80762,0.96826,4.92847
				c-0.13989-0.08945-0.39578-0.62512-0.30435,0.14511c0.22858,0.86365,1.15408,4.33315,1.29074,6.55737l-0.60599-1.83165
				c0.8378,8.7319,2.71667,13.19823,3.95648,20.44334c-0.88974,0.10733-0.20822,6.97479,0.13193,10.40256l-0.14236-0.10037
				c1.32529,10.11731,3.17236,17.05533,4.84921,26.36168c-0.13791,5.94318,2.39044,19.72878,3.17633,29.13847
				c-0.04175-1.45001,0.72424,0.13419,1.04898,1.78c0.13095,2.21625,1.47537,5.96701,0.6127,5.73544l-0.09564-0.78314
				c-0.28177,0.88254-0.20996,2.44089-0.00769,4.21887c0.1011,0.76028,0.20895,1.57028,0.31653,2.37924
				c0.0231,0.14212,0.04596,0.28326,0.06757,0.41544l0.07504,0.06161c0.34958,0.29022,0.64328,0.58835,0.88153,0.89447
				c-0.30981-0.03876-0.62958-0.07751-0.9588-0.11829l-0.39282-0.04172c-0.3205,0.01886-0.64474,0.03876-0.97247,0.05862
				c-1.30988,0.09143-2.67242,0.23355-4.05908,0.41046c-2.77335,0.35181-5.64279,0.83682-8.38135,1.3089
				c-5.47656,0.94315-10.42865,1.83264-13.03574,1.49573c-2.17999,0.58139-4.92896,0.96899-7.09009,1.54642l0.03754-0.58737
				c-6.16754,0.72751-9.24622,1.09125-16.82452,2.30673l1.49152-0.62811c-4.29068,0.57245-5.17743,2.41403-9.12573,3.00934
				l-1.31036-0.68277c-7.47446,1.07434-15.14816,1.40134-22.42609,3.22305c0.10336-0.14114,0.28821-0.4194,1.49399-0.62512
				c-3.52267,0.47702-13.69513,1.35657-12.25085,2.34445c-0.19553-0.74936-7.7244,1.02069-11.71466,1.93005l0.54861-0.65097
				c-3.30627,1.20157-3.38702,1.41324-8.11774,2.28784c-1.13867,0.08743-1.05222-0.30911,0.46613-0.37866
				c-3.79996,0.2395-2.85281,0.94812-7.45184,1.29596l1.64682-0.59927c-3.87302,0.50586-3.53833,0.65393-5.60779,1.37546
				c-2.39938,0.56949-7.35516,0.89944-7.99844,0.47308c-0.47702,0.38364-2.53577,1.09821-4.83554,1.27509
				c-0.33467-0.14807,0.47804-0.38461,0.88727-0.50186c-6.51987,0.53568-9.52127,2.01749-14.04623,2.09799
				c-0.11902-0.17294-0.42189-0.22461-0.79855-0.22858c5.13817-0.71658,9.27927-1.27313,8.89787-1.17673
				c-0.07355-0.51779-4.23576-0.01889-1.03633-1.20355c-3.27545,0.86368-8.84967,2.52039-12.92853,2.85135
				c-0.20337-0.02185-0.40152-0.04373-0.56029-0.10336l0.41034-0.11728c-0.94055,0.08151-1.76967,0.24847-2.54436,0.44724
				c-1.30269,0.09839-2.13118,0.15106-3.37175,0.32001c-0.53928-0.36075-4.79044,0.44427-6.86235,0.71756
				c0.25169,0.54166-2.46996,0.83585,0.13391,0.94217c-0.3343,0.00696,0.38152-0.12225,1.75377-0.34088
				c0.30872-0.06161,0.67357-0.12225,0.8737-0.18387c-0.03851,0.01987-0.08496,0.04373-0.13417,0.06958
				c1.35672-0.20276,3.12651-0.46811,5.13705-0.76825c-1.59325,0.51978-3.26675,1.00378-5.59906,1.01471
				c-1.01024,0.51483-2.12534,1.05548-2.75879,1.3248c-2.94327-0.38858-8.4612-0.04074-9.29007-0.4194
				c-6.27177,1.21448-14.85161,2.3226-18.6722,3.95151c-1.77724,0.3916-2.10857-0.0119-2.80325-0.08447
				c1.02179-0.25342,2.25726-0.41245,2.79654-0.64499c-3.55199,0.78314-10.62468,1.61697-11.37627,2.4826
				c-4.57416,0.3071,2.44659-1.0455-3.75562-0.04074l0.80737-0.34686c-12.40402,0.54962-19.62193,4.72275-33.40306,5.12427
				c0.95273-0.03976,1.42865-0.0636,1.63872,0.03378c-15.56035,1.52356-31.77962,5.15707-47.19102,6.25824
				c-4.36843,0.40051-4.77069,0.94217-7.36686,1.6796l-1.02602-0.47507l-4.42683,1.34467
				c-6.34507,1.42618-11.32658,0.08548-19.31447,2.2113l1.10639,0.26138c-2.9296,0.33691-9.20982,1.55438-8.78955,1.01373
				c-0.28796,0.11728-0.89645,0.5625-2.06744,0.51083l-0.13392-0.30612l-7.09144,1.56433
				c-5.58999,0.55853,0.68998-1.38742-7.4286-0.29816c-2.99731,0.55157-8.45276,2.1467-7.29058,2.19836
				c1.21907-0.15701,3.13657-0.24249,3.2731,0.06363l-2.73381,0.55753c-0.36648,1.00876-2.35019,2.27094,4.5108,1.96484
				l4.63491-1.24332l1.58381,0.23953l-3.96518,0.59232c2.3123,0.10834,3.68653-0.47305,5.24749-0.96005
				c0.41294,0.18784,1.09919,0.26337,2.04769,0.22064l4.50298-1.55438c0.61308,0.28824-1.97303,1.02368,1.16292,0.78516
				c2.10993-0.72452-2.19701-0.52774,1.35486-1.31088c2.31689,0.10535,1.70779,0.5466,4.30359-0.19382
				c0.40661,0.18884-0.13255,0.42239-1.16689,0.67783c2.3164-0.62415,6.22071-1.00876,7.36686-1.6796
				c2.42609,0.1918,7.93906-1.26715,7.83285-0.34686c0.71072-0.31705,4.05264-1.28702,6.21264-1.63089
				c-3.80456,1.62494,8.11361-1.08826,7.22984,0.19977c2.79146-1.37152,10.51437-1.92609,15.62408-3.19324
				c-0.27914,0.11728-0.827,0.35184-1.29125,0.36774c2.92985-0.33493,3.81909-0.16696,5.72006-0.25345
				c0.26275-0.84277,4.78237-1.66864,7.16325-2.50348c3.68517,0.25443-2.0411,1.23535-0.81396,1.8078
				c-0.27082-0.6142,6.12506-1.52158,4.83244-1.88135c2.80301,0.08249,2.39007-0.10632,3.89226,0.34784
				c0.33952-1.05545,2.52374-0.52872,4.70647-1.45795c4.02843-0.07553,1.15088,0.78015,5.45732-0.13815
				C138.33191,323.19531,134.51357,324.09473,134.51357,324.09473z M237.71138,307.69632l0.00148,0.01096
				c-0.88899,0.14011-1.64691,0.25937-2.13068,0.33591C236.0257,307.97064,236.63976,307.87024,237.71138,307.69632z
				 M246.40327,306.45303c-1.05943,0.1441-2.37851,0.323-3.77386,0.51282c-0.33269-0.15204-0.03131-0.40051,0.84476-0.51382
				C243.01775,306.64981,245.08296,306.47192,246.40327,306.45303z M227.45851,305.13818
				c1.36418-0.2753,1.84097-0.22958,2.04608-0.14014c-0.64687,0.11032-1.40318,0.2395-2.39665,0.40945
				c-0.03902,0.02386-0.1123,0.06857-0.15256,0.09244C227.07117,305.37372,227.2067,305.25049,227.45851,305.13818z" style=""></path>
			<path fill="#0560af" d="M225.09032,306.2334c-0.19691,0.03976-0.3035,0.0795-0.5614,0.12125
				c0.28821,0.00397,0.56165,0.00696,0.83893,0.01093c0.15852-0.08447,0.3199-0.17093,0.46201-0.24646
				C225.5804,306.15686,225.32225,306.1976,225.09032,306.2334z" style=""></path>
			<path fill="#0560af" d="M13.83705,161.59544l-0.01317-0.18486c-0.00087,0.15504-0.00323,0.29816-0.02596,0.39555
				C13.80798,161.67992,13.82575,161.67793,13.83705,161.59544z" style=""></path>
			<polygon fill="#0560af" points="366.59045,290.48892 366.55765,290.34781 365.81577,290.58035 			" style=""></polygon>
			<path fill="#0560af" d="M18.69259,209.74814c-0.03677,0.09839-0.06286,0.28523-0.05578,0.64897
				C18.67011,210.36432,18.6834,210.08604,18.69259,209.74814z" style=""></path>
			<path fill="#0560af" d="M21.50293,230.4469l0.21368,2.9537C21.65151,232.11855,21.57511,231.1893,21.50293,230.4469z" style=""></path>
			<path fill="#0560af" d="M23.48031,246.38814c0.12796,0.18684,0.21094,0.23355,0.28685,0.27629v-0.0318L23.48031,246.38814z" style=""></path>
			<path fill="#0560af" d="M129.92078,97.21827c0.21231-0.03976,0.42189-0.07851,0.60985-0.1133
				C131.9543,96.79092,130.98219,96.97279,129.92078,97.21827z" style=""></path>
			<path fill="#0560af" d="M54.87221,109.22688c0.78377-0.21567,1.55648-0.42934,2.38075-0.61121
				C55.90754,108.76275,54.86513,108.8989,54.87221,109.22688z" style=""></path>
			<path fill="#0560af" d="M213.83752,84.60342c0,0,0.00063,0.00497-0.00732,0.01192c0.17989-0.02584,0.33852-0.0487,0.5184-0.07454
				L213.83752,84.60342z" style=""></path>
			<path fill="#0560af" d="M60.75265,108.12868c-1.35535,0.07751-2.47131,0.26038-3.49969,0.48698
				C58.35662,108.49739,59.65794,108.37217,60.75265,108.12868z" style=""></path>
			<path fill="#0560af" d="M33.01176,315.34198l0.08497,0.76923c0.03566-0.01788,0.07255,0.02286,0.10398,0.07751
				L33.01176,315.34198z" style=""></path>
			<path fill="#0560af" d="M33.20071,316.18872l0.18784,0.8418C33.33302,316.63992,33.28047,316.30103,33.20071,316.18872z" style=""></path>
			<path fill="#0560af" d="M33.78547,318.80054l-0.39692-1.77002C33.47514,317.65067,33.56595,318.41791,33.78547,318.80054z" style=""></path>
			<path fill="#0560af" d="M30.28366,294.25461l-0.23976-0.2117C30.10527,294.16815,30.18341,294.24368,30.28366,294.25461z" style=""></path>
			<path fill="#0560af" d="M29.31566,287.86618c0.16995,1.5325,0.10547,3.8909,0.53655,6.00183l0.19169,0.1749
				C29.59629,293.08585,29.86799,289.26651,29.31566,287.86618z" style=""></path>
			<path fill="#0560af" d="M28.0628,260.80682l0.59705,5.38266c0.08572-0.96802,0.20498-2.24112,0.60376,0.18881
				C28.95688,259.52875,28.97216,267.84222,28.0628,260.80682z" style=""></path>
			<path fill="#0560af" d="M26.01958,244.14107c0.51083,2.86525,0.31306-0.07852,0.45866,0.05565
				C26.01908,242.39885,25.90566,241.96355,26.01958,244.14107z" style=""></path>
			<path fill="#0560af" d="M8.96287,124.03116l0.55668,0.21666C9.13046,122.03851,9.3168,124.25478,8.96287,124.03116z" style=""></path>
			<polygon fill="#0560af" points="22.13353,113.34834 19.92782,113.33443 18.96665,113.95359 			" style=""></polygon>
			<polygon fill="#0560af" points="36.21827,115.09353 35.25921,115.30521 38.93581,114.59263 			" style=""></polygon>
			<path fill="#0560af" d="M237.91512,86.26015l-0.76103-0.53966C235.66977,86.04747,235.45622,86.80577,237.91512,86.26015z" style=""></path>
			<path fill="#0560af" d="M324.90793,73.24578c0.99335,0.18287,3.47223,0.03876,4.93716-0.48798
				C327.88126,72.99235,325.89334,73.02216,324.90793,73.24578z" style=""></path>
			<path fill="#0560af" d="M388.96335,282.1178c0.53693-0.14908,1.23062-0.32001,1.63837-0.45023l-3.19247,0.63409
				L388.96335,282.1178z" style=""></path>
		</g>
	</g>
</g>


<desc>Created with Snap</desc><defs></defs></g><g><g transform="matrix(1.024,0,0,-1.024,0,0)"><path d="M137 132L137 136Q86 156 63 199Q40 242 40 294Q40 331 53 364Q66 397 90 421Q115 446 149 460Q184 474 228 474Q254 474 279 469Q305 464 324 455Q366 456 402 460Q439 464 471 473L476 469L469 394L464 389L389 397L388 394Q404 376 413 346Q422 316 422 289Q422 256 409 226Q397 196 373 173Q349 151 313 137Q277 124 230 124Q224 124 214 124Q205 125 200 125Q183 118 174 106Q166 94 166 86Q166 64 213 58L310 48Q343 44 371 34Q400 24 421 7Q443 -9 455 -33Q467 -56 467 -87Q467 -116 454 -146Q441 -175 415 -198Q389 -220 343 -234Q297 -248 237 -248Q183 -248 143 -237Q104 -225 77 -206Q51 -186 38 -162Q25 -137 25 -111Q25 -69 52 -37Q80 -4 123 9L124 12Q100 21 85 34Q71 48 71 68Q71 94 92 110Q113 126 137 132ZM232 193Q252 193 267 201Q283 209 294 222Q305 235 310 252Q316 270 316 289Q316 309 310 329Q304 349 293 365Q282 382 265 392Q248 403 226 403Q205 403 190 393Q175 384 164 369Q154 354 149 335Q144 316 144 298Q144 279 149 260Q155 241 166 226Q177 211 193 202Q210 193 232 193ZM267 -29L200 -22Q178 -23 162 -30Q146 -37 135 -49Q124 -60 118 -74Q113 -87 113 -100Q113 -129 148 -148Q183 -166 243 -166Q297 -166 334 -149Q371 -131 371 -97Q371 -78 362 -66Q353 -54 338 -47Q323 -39 304 -35Q286 -31 267 -29ZM780 0L778 -4Q771 -4 757 -3Q743 -2 727 -2Q711 -1 697 -1Q683 0 676 0L622 0Q615 0 600 -1Q586 -1 570 -2Q555 -2 540 -3Q526 -4 519 -4L518 0L520 34L523 38Q538 38 554 39Q570 41 578 49Q585 56 588 67Q591 78 593 98Q594 105 594 112Q595 119 595 127Q596 135 596 146Q596 157 596 173L596 286Q596 305 596 316Q596 328 595 336Q595 344 594 350Q594 357 593 366Q591 376 587 385Q583 394 580 397Q570 410 555 412Q540 414 524 414L520 418L520 452L524 455L575 455Q598 455 624 455Q650 456 670 459L705 464L711 445Q709 441 707 432Q706 424 705 414Q705 405 704 395Q704 386 704 380Q704 372 703 365Q703 359 703 350Q703 342 702 329Q702 316 702 297L702 185Q702 165 702 152Q703 140 703 131Q704 122 704 114Q705 107 706 98Q708 77 710 66Q713 56 721 49Q729 41 743 39Q758 38 773 38L778 33L780 0ZM575 613Q575 625 580 637Q585 649 594 658Q603 668 614 673Q626 679 639 679Q664 679 684 658Q705 638 705 613Q705 600 699 588Q694 577 684 568Q675 559 663 554Q651 549 639 549Q613 549 594 568Q575 587 575 613ZM1116 405L1111 400L1004 400L1004 258Q1004 220 1004 195Q1004 170 1004 152Q1005 135 1006 122Q1007 110 1008 98Q1010 83 1016 69Q1022 56 1030 49Q1038 41 1052 39Q1067 38 1076 38L1081 33L1083 0L1081 -4Q1075 -4 1062 -3Q1049 -2 1035 -2Q1021 -1 1008 -1Q995 0 989 0L925 0Q918 0 903 -1Q889 -1 873 -2Q857 -2 842 -3Q828 -4 821 -4L820 0L822 34L825 38Q840 38 854 40Q868 43 877 51Q883 57 887 66Q892 75 894 94Q896 113 897 146Q898 179 898 234L898 400L844 400L840 405L840 448L844 452L898 467L898 524Q898 626 945 685Q993 745 1085 745Q1108 745 1135 735Q1162 726 1191 705L1196 695L1184 608L1148 608Q1146 637 1123 654Q1100 671 1071 671Q1046 671 1032 662Q1019 654 1012 640Q1006 627 1005 609Q1004 591 1004 573L1004 467L1111 473L1116 469L1116 405ZM1451 405L1446 400L1339 400L1339 258Q1339 220 1339 195Q1339 170 1339 152Q1340 135 1341 122Q1342 110 1343 98Q1345 83 1351 69Q1357 56 1365 49Q1373 41 1387 39Q1402 38 1411 38L1416 33L1418 0L1416 -4Q1410 -4 1397 -3Q1384 -2 1370 -2Q1356 -1 1343 -1Q1330 0 1324 0L1260 0Q1253 0 1238 -1Q1224 -1 1208 -2Q1192 -2 1177 -3Q1163 -4 1156 -4L1155 0L1157 34L1160 38Q1175 38 1189 40Q1203 43 1212 51Q1218 57 1222 66Q1227 75 1229 94Q1231 113 1232 146Q1233 179 1233 234L1233 400L1179 400L1175 405L1175 448L1179 452L1233 467L1233 524Q1233 626 1280 685Q1328 745 1420 745Q1443 745 1470 735Q1497 726 1526 705L1531 695L1519 608L1483 608Q1481 637 1458 654Q1435 671 1406 671Q1381 671 1367 662Q1354 654 1347 640Q1341 627 1340 609Q1339 591 1339 573L1339 467L1446 473L1451 469L1451 405ZM1861 131L1763 -116Q1751 -146 1731 -171Q1712 -195 1687 -213Q1662 -231 1634 -243Q1606 -254 1577 -258Q1569 -260 1558 -260Q1548 -260 1528 -260L1521 -258L1518 -207L1522 -202L1536 -202Q1548 -202 1562 -200Q1576 -197 1589 -190Q1618 -176 1642 -150Q1667 -124 1676 -100L1704 -25L1624 158Q1619 169 1608 197Q1597 225 1583 258Q1569 292 1553 325Q1538 358 1525 380Q1515 396 1502 405Q1490 414 1469 416L1463 421L1463 455L1467 459Q1484 457 1503 455Q1522 453 1538 453L1617 453Q1632 453 1653 455Q1675 457 1693 459L1697 455L1697 423L1693 419Q1674 417 1660 407Q1647 398 1647 380Q1647 368 1655 340Q1664 313 1675 282Q1687 251 1697 224Q1708 198 1711 189L1754 68L1804 189Q1811 205 1821 229Q1831 254 1840 281Q1850 308 1857 334Q1864 360 1864 380Q1864 402 1849 409Q1834 417 1817 419L1813 423L1813 455L1817 459Q1836 455 1853 454Q1870 453 1885 453L1966 453Q1983 453 1999 455Q2016 457 2035 459L2039 455L2039 421L2033 416Q2016 414 2003 406Q1991 398 1980 380Q1965 356 1946 318Q1928 281 1910 243Q1893 205 1879 174Q1865 143 1861 131Z" fill="#0560af" style=""></path></g></g></g></svg>